<?xml version="1.0" encoding="UTF-8"?>
<!DOCTYPE svg PUBLIC "-//W3C//DTD SVG 1.1//EN" "http://www.w3.org/Graphics/SVG/1.1/DTD/svg11.dtd">
<svg xmlns="http://www.w3.org/2000/svg" version="1.1" width="1606px" height="94px" style="shape-rendering:geometricPrecision; text-rendering:geometricPrecision; image-rendering:optimizeQuality; fill-rule:evenodd; clip-rule:evenodd" xmlns:xlink="http://www.w3.org/1999/xlink">
<g><path style="opacity:0.815" fill="#a8a8a8" d="M -0.5,0.5 C -0.5,0.166667 -0.5,-0.166667 -0.5,-0.5C 11.5,-0.5 23.5,-0.5 35.5,-0.5C 35.5,0.166667 35.5,0.833333 35.5,1.5C 23.5803,0.521386 11.5803,0.188053 -0.5,0.5 Z"/></g>
<g><path style="opacity:0.999" fill="#343434" d="M -0.5,0.5 C 11.5803,0.188053 23.5803,0.521386 35.5,1.5C 33.6387,3.56159 31.3053,4.89493 28.5,5.5C 27.3065,5.97041 26.6399,6.97041 26.5,8.5C 29.1016,14.9076 30.435,21.5742 30.5,28.5C 29.5,28.5 28.5,28.5 27.5,28.5C 27.3398,30.1992 27.5065,31.8659 28,33.5C 29.1455,34.6843 30.3121,34.6843 31.5,33.5C 31.2627,34.791 31.596,35.791 32.5,36.5C 32.5,37.5 32.5,38.5 32.5,39.5C 31.1667,39.5 29.8333,39.5 28.5,39.5C 28.719,38.325 28.3857,37.325 27.5,36.5C 26.2473,39.9203 27.5807,41.2536 31.5,40.5C 32.3984,41.1577 33.3984,41.8243 34.5,42.5C 34.3333,42.8333 34.1667,43.1667 34,43.5C 30.7761,43.7008 27.4428,43.3674 24,42.5C 23,43.1667 22,43.8333 21,44.5C 20.6524,47.6018 21.1524,50.6018 22.5,53.5C 23.7362,54.2458 25.0695,54.5792 26.5,54.5C 26.238,53.0222 26.5713,51.6888 27.5,50.5C 28.0108,52.8839 29.0108,54.8839 30.5,56.5C 30.5,58.1667 30.5,59.8333 30.5,61.5C 29.7814,63.7638 29.448,66.0971 29.5,68.5C 29.0692,73.032 29.5692,77.3654 31,81.5C 32.6667,78.8333 34.3333,78.8333 36,81.5C 38.2465,81.2208 40.7465,80.8874 43.5,80.5C 43.8333,80.5 44.1667,80.5 44.5,80.5C 44.5,81.5 44.5,82.5 44.5,83.5C 39.1667,83.5 33.8333,83.5 28.5,83.5C 28.8064,80.6146 28.4731,77.9479 27.5,75.5C 28.441,70.9296 28.7744,66.263 28.5,61.5C 28.7148,59.8212 28.0481,58.8212 26.5,58.5C 23.5768,57.8031 20.7435,56.8031 18,55.5C 14.5693,56.8111 11.0693,57.8111 7.5,58.5C 7.5,59.5 7.5,60.5 7.5,61.5C 6.56404,65.7352 6.23071,70.0685 6.5,74.5C 5.83343,68.6535 5.16677,62.6535 4.5,56.5C 3.16667,63.8333 3.16667,71.1667 4.5,78.5C 11.4574,82.9955 18.7907,83.6622 26.5,80.5C 26.5,82.1667 26.5,83.8333 26.5,85.5C 38.5,85.5 50.5,85.5 62.5,85.5C 62.5,82.8333 62.5,80.1667 62.5,77.5C 71.5118,76.5655 80.5118,75.5655 89.5,74.5C 89.8204,71.1016 89.487,67.7683 88.5,64.5C 87.52,67.0865 87.1866,69.7531 87.5,72.5C 80.5406,73.4959 73.5406,74.1626 66.5,74.5C 66.4142,73.5041 66.7476,72.6708 67.5,72C 63.82,70.7753 64.1534,69.942 68.5,69.5C 68.5,68.5 68.5,67.5 68.5,66.5C 77.439,67.8042 82.6057,64.1376 84,55.5C 84.4966,53.1902 84.6633,50.8568 84.5,48.5C 85.5,48.5 86.5,48.5 87.5,48.5C 88.533,43.3088 86.8663,39.3088 82.5,36.5C 86.0811,34.0196 87.2478,30.6863 86,26.5C 83.6194,25.565 81.1194,25.2317 78.5,25.5C 77.0518,21.0365 74.3851,17.3698 70.5,14.5C 65.5164,10.7824 60.0164,8.11576 54,6.5C 54.1461,11.8241 54.1461,17.1574 54,22.5C 52.9355,15.8093 51.7688,9.1426 50.5,2.5C 50.5,2.16667 50.5,1.83333 50.5,1.5C 64.4213,0.518214 78.4213,0.18488 92.5,0.5C 92.5,31.5 92.5,62.5 92.5,93.5C 61.5,93.5 30.5,93.5 -0.5,93.5C -0.5,62.5 -0.5,31.5 -0.5,0.5 Z M 37.5,23.5 C 40.8499,23.335 44.1832,23.5017 47.5,24C 43.8861,25.0622 40.2194,25.5622 36.5,25.5C 35.8333,25.3333 35.1667,25.1667 34.5,25C 35.7375,24.7679 36.7375,24.2679 37.5,23.5 Z M 36.5,54.5 C 37.5,54.8333 38.1667,55.5 38.5,56.5C 37.5,56.8333 36.8333,57.5 36.5,58.5C 35.6457,57.3684 35.6457,56.035 36.5,54.5 Z M 41.5,54.5 C 41.3811,56.1834 41.0478,57.85 40.5,59.5C 40.2178,58.2223 39.5511,57.2223 38.5,56.5C 39.2223,55.4489 40.2223,54.7822 41.5,54.5 Z M 42.5,54.5 C 43.1667,54.5 43.8333,54.5 44.5,54.5C 44.5,55.1667 44.5,55.8333 44.5,56.5C 43.5,56.1667 42.8333,55.5 42.5,54.5 Z M 47.5,58.5 C 46.8333,57.8333 46.1667,57.1667 45.5,56.5C 45.9046,55.4502 46.5712,55.4502 47.5,56.5C 48.7733,57.2565 48.7733,57.9232 47.5,58.5 Z M 34.5,74.5 C 34.5,74.8333 34.5,75.1667 34.5,75.5C 33.325,75.719 32.325,75.3857 31.5,74.5C 32.2334,73.913 33.2334,73.913 34.5,74.5 Z M 55.5,71.5 C 56.9063,71.9731 57.573,72.9731 57.5,74.5C 57.3611,75.9191 56.8611,77.2524 56,78.5C 55.3918,76.9336 54.5585,75.6002 53.5,74.5C 54.1667,73.5 54.8333,72.5 55.5,71.5 Z M 14.5,71.5 C 14.8333,71.5 15.1667,71.5 15.5,71.5C 18.144,78.3655 17.4773,78.8655 13.5,73C 14.056,72.6174 14.3893,72.1174 14.5,71.5 Z M 31.5,70.5 C 31.5,71.1667 31.8333,71.5 32.5,71.5C 32.44,72.0431 32.1067,72.3764 31.5,72.5C 30.2267,71.7435 30.2267,71.0768 31.5,70.5 Z M 8.5,70.5 C 11.0764,70.7218 11.9098,72.0551 11,74.5C 9.51869,73.5291 8.68535,72.1958 8.5,70.5 Z M 15.5,71.5 C 15.7828,70.7109 16.2828,70.0442 17,69.5C 17.5281,70.816 17.0281,71.4827 15.5,71.5 Z M 14.5,71.5 C 12.3544,71.3036 12.1878,70.3036 14,68.5C 14.4828,69.448 14.6495,70.448 14.5,71.5 Z"/></g>
<g><path style="opacity:0.686" fill="#969696" d="M 50.5,-0.5 C 64.8333,-0.5 79.1667,-0.5 93.5,-0.5C 93.5324,30.7094 93.5324,62.0427 93.5,93.5C 93.1667,93.5 92.8333,93.5 92.5,93.5C 92.5,62.5 92.5,31.5 92.5,0.5C 78.4213,0.18488 64.4213,0.518214 50.5,1.5C 50.5,0.833333 50.5,0.166667 50.5,-0.5 Z"/></g>
<g><path style="opacity:0.098" fill="#b8c0c0" d="M 46.5,-0.5 C 46.8333,-0.5 47.1667,-0.5 47.5,-0.5C 48.1667,0.5 48.8333,1.5 49.5,2.5C 48.8761,2.91695 48.5427,3.58362 48.5,4.5C 50.1425,9.37895 51.1425,14.3789 51.5,19.5C 48.4318,20.0218 45.4318,20.8551 42.5,22C 44.5767,22.1922 46.5767,22.6922 48.5,23.5C 49.2458,24.7362 49.5792,26.0695 49.5,27.5C 43.5,27.5 37.5,27.5 31.5,27.5C 31.6695,25.1516 32.0029,22.8183 32.5,20.5C 31.1549,15.4708 29.8216,10.4708 28.5,5.5C 31.3053,4.89493 33.6387,3.56159 35.5,1.5C 39.3158,1.96637 42.9824,1.29971 46.5,-0.5 Z M 37.5,23.5 C 36.7375,24.2679 35.7375,24.7679 34.5,25C 35.1667,25.1667 35.8333,25.3333 36.5,25.5C 40.2194,25.5622 43.8861,25.0622 47.5,24C 44.1832,23.5017 40.8499,23.335 37.5,23.5 Z"/></g>
<g><path style="opacity:1" fill="#111111" d="M 127.5,62.5 C 128.919,63.4511 130.585,63.7845 132.5,63.5C 132.822,57.642 132.489,51.9753 131.5,46.5C 131.5,46.1667 131.5,45.8333 131.5,45.5C 136.305,44.5128 141.305,44.1795 146.5,44.5C 146.666,53.5062 146.5,62.5062 146,71.5C 145.167,72.3333 144.333,73.1667 143.5,74C 133.786,74.8073 124.119,74.6406 114.5,73.5C 113.416,72.3349 112.583,71.0016 112,69.5C 111.333,56.1667 111.333,42.8333 112,29.5C 112.167,24 115,21.1667 120.5,21C 129.16,20.5002 137.827,20.3336 146.5,20.5C 146.5,25.1667 146.5,29.8333 146.5,34.5C 139.949,33.3154 133.449,33.3154 127,34.5C 126.22,43.8807 126.387,53.214 127.5,62.5 Z"/></g>
<g><path style="opacity:0.586" fill="#717171" d="M 169.5,67.5 C 169.5,52.1667 169.5,36.8333 169.5,21.5C 165.167,21.5 160.833,21.5 156.5,21.5C 156.829,34.0113 156.495,46.3446 155.5,58.5C 155.5,45.8333 155.5,33.1667 155.5,20.5C 160.5,20.5 165.5,20.5 170.5,20.5C 170.83,36.3422 170.496,52.0089 169.5,67.5 Z"/></g>
<g><path style="opacity:1" fill="#070707" d="M 169.5,67.5 C 169.089,71.0791 167.089,73.2458 163.5,74C 158.874,75.7559 154.207,75.9226 149.5,74.5C 148.631,72.283 148.298,69.9496 148.5,67.5C 148.5,66.1667 148.5,64.8333 148.5,63.5C 150.361,62.1581 152.361,61.1581 154.5,60.5C 154.833,59.8333 155.167,59.1667 155.5,58.5C 156.495,46.3446 156.829,34.0113 156.5,21.5C 160.833,21.5 165.167,21.5 169.5,21.5C 169.5,36.8333 169.5,52.1667 169.5,67.5 Z"/></g>
<g><path style="opacity:0.311" fill="#b2b2b2" d="M 194.5,21.5 C 189.833,21.5 185.167,21.5 180.5,21.5C 180.829,34.0113 180.495,46.3446 179.5,58.5C 179.5,45.8333 179.5,33.1667 179.5,20.5C 184.695,20.1795 189.695,20.5128 194.5,21.5 Z"/></g>
<g><path style="opacity:1" fill="#0a0a0a" d="M 194.5,21.5 C 194.667,37.1702 194.5,52.8369 194,68.5C 190.845,73.6405 186.178,75.9738 180,75.5C 177.127,75.5545 174.46,74.8878 172,73.5C 171.51,71.4546 171.677,69.4546 172.5,67.5C 173.461,65.7354 173.795,63.7354 173.5,61.5C 176.082,61.9746 178.082,61.3079 179.5,59.5C 179.5,59.1667 179.5,58.8333 179.5,58.5C 180.495,46.3446 180.829,34.0113 180.5,21.5C 185.167,21.5 189.833,21.5 194.5,21.5 Z"/></g>
<g><path style="opacity:1" fill="#0e0e0e" d="M 228.5,47.5 C 223.371,47.719 223.371,48.3856 228.5,49.5C 231.595,49.6263 233.428,51.293 234,54.5C 234.667,59.5 234.667,64.5 234,69.5C 233.727,71.3289 232.893,72.8289 231.5,74C 220.839,74.4998 210.172,74.6665 199.5,74.5C 199.5,56.5 199.5,38.5 199.5,20.5C 208.506,20.3336 217.506,20.5002 226.5,21C 230.368,21.0133 232.868,22.8466 234,26.5C 234.667,31.8333 234.667,37.1667 234,42.5C 233.428,45.707 231.595,47.3737 228.5,47.5 Z M 217.5,33.5 C 219.64,35.8814 219.973,38.5481 218.5,41.5C 217.167,41.5 215.833,41.5 214.5,41.5C 214.5,38.8333 214.5,36.1667 214.5,33.5C 215.5,33.5 216.5,33.5 217.5,33.5 Z M 218.5,54.5 C 219.983,57.4109 219.65,60.0775 217.5,62.5C 216.5,62.5 215.5,62.5 214.5,62.5C 214.5,59.8333 214.5,57.1667 214.5,54.5C 215.833,54.5 217.167,54.5 218.5,54.5 Z"/></g>
<g><path style="opacity:1" fill="#070707" d="M 245.5,21.5 C 251.833,21.5 258.167,21.5 264.5,21.5C 264.5,25.1667 264.5,28.8333 264.5,32.5C 260.167,32.5 255.833,32.5 251.5,32.5C 251.5,35.8333 251.5,39.1667 251.5,42.5C 255.833,42.5 260.167,42.5 264.5,42.5C 264.5,46.1667 264.5,49.8333 264.5,53.5C 260.167,53.5 255.833,53.5 251.5,53.5C 251.5,56.8333 251.5,60.1667 251.5,63.5C 255.833,63.5 260.167,63.5 264.5,63.5C 264.5,67.1667 264.5,70.8333 264.5,74.5C 256.826,74.6664 249.159,74.4997 241.5,74C 240.667,73.1667 239.833,72.3333 239,71.5C 237.385,57.2354 237.052,42.9021 238,28.5C 238.444,23.8875 240.944,21.5542 245.5,21.5 Z"/></g>
<g><path style="opacity:1" fill="#101010" d="M 296.5,21.5 C 305.167,21.5 313.833,21.5 322.5,21.5C 322.5,25.5 322.5,29.5 322.5,33.5C 321.5,33.5 320.5,33.5 319.5,33.5C 314.167,33.5 308.833,33.5 303.5,33.5C 302.196,43.1598 302.196,52.8264 303.5,62.5C 304.833,62.5 306.167,62.5 307.5,62.5C 307.5,56.5 307.5,50.5 307.5,44.5C 312.5,44.5 317.5,44.5 322.5,44.5C 322.5,52.1667 322.5,59.8333 322.5,67.5C 322.919,70.3245 321.919,72.4912 319.5,74C 310.167,74.6667 300.833,74.6667 291.5,74C 290.667,73.1667 289.833,72.3333 289,71.5C 287.411,58.5566 287.078,45.5566 288,32.5C 288.197,29.3081 289.03,26.3081 290.5,23.5C 292.173,21.9137 294.173,21.2471 296.5,21.5 Z"/></g>
<g><path style="opacity:0.16" fill="#cdcdcd" d="M 296.5,21.5 C 305.318,20.5067 314.318,20.1734 323.5,20.5C 323.5,25.1667 323.5,29.8333 323.5,34.5C 321.901,34.7678 320.568,34.4345 319.5,33.5C 320.5,33.5 321.5,33.5 322.5,33.5C 322.5,29.5 322.5,25.5 322.5,21.5C 313.833,21.5 305.167,21.5 296.5,21.5 Z"/></g>
<g><path style="opacity:1" fill="#000000" d="M 429.5,21.5 C 429.5,24.1667 429.5,26.8333 429.5,29.5C 425.5,29.5 421.5,29.5 417.5,29.5C 417.5,26.8333 417.5,24.1667 417.5,21.5C 421.5,21.5 425.5,21.5 429.5,21.5 Z"/></g>
<g><path style="opacity:1" fill="#0d0d0d" d="M 533.5,21.5 C 541.833,21.5 550.167,21.5 558.5,21.5C 558.5,25.5 558.5,29.5 558.5,33.5C 557.5,33.5 556.5,33.5 555.5,33.5C 550.238,33.1953 545.072,33.5286 540,34.5C 539.333,43.5 539.333,52.5 540,61.5C 541.356,62.3802 542.856,62.7135 544.5,62.5C 544.5,57.5 544.5,52.5 544.5,47.5C 544.5,46.5 544.5,45.5 544.5,44.5C 549.167,44.5 553.833,44.5 558.5,44.5C 558.5,53.1667 558.5,61.8333 558.5,70.5C 558.426,72.4109 557.426,73.5776 555.5,74C 546.5,74.6667 537.5,74.6667 528.5,74C 527.584,73.6258 526.75,73.1258 526,72.5C 524.367,57.5931 524.033,42.5931 525,27.5C 526.049,22.9491 528.882,20.9491 533.5,21.5 Z"/></g>
<g><path style="opacity:0.547" fill="#9a9a9a" d="M 533.5,21.5 C 541.984,20.507 550.651,20.1736 559.5,20.5C 559.5,25.1667 559.5,29.8333 559.5,34.5C 557.901,34.7678 556.568,34.4345 555.5,33.5C 556.5,33.5 557.5,33.5 558.5,33.5C 558.5,29.5 558.5,25.5 558.5,21.5C 550.167,21.5 541.833,21.5 533.5,21.5 Z"/></g>
<g><path style="opacity:0.427" fill="#9f9f9f" d="M 775.5,21.5 C 766.833,21.5 758.167,21.5 749.5,21.5C 749.5,39.1667 749.5,56.8333 749.5,74.5C 748.503,56.6744 748.17,38.6744 748.5,20.5C 757.682,20.1734 766.682,20.5067 775.5,21.5 Z"/></g>
<g><path style="opacity:1" fill="#0e0e0e" d="M 775.5,21.5 C 778.961,21.1459 781.461,22.4792 783,25.5C 784.926,40.1589 784.926,54.8256 783,69.5C 782.215,71.286 781.049,72.786 779.5,74C 769.506,74.4998 759.506,74.6665 749.5,74.5C 749.5,56.8333 749.5,39.1667 749.5,21.5C 758.167,21.5 766.833,21.5 775.5,21.5 Z M 767.5,33.5 C 768.658,42.6575 768.824,51.9908 768,61.5C 766.644,62.3802 765.144,62.7135 763.5,62.5C 763.5,52.8333 763.5,43.1667 763.5,33.5C 764.833,33.5 766.167,33.5 767.5,33.5 Z"/></g>
<g><path style="opacity:1" fill="#000000" d="M 788.5,21.5 C 792.5,21.5 796.5,21.5 800.5,21.5C 800.5,24.1667 800.5,26.8333 800.5,29.5C 796.5,29.5 792.5,29.5 788.5,29.5C 788.5,26.8333 788.5,24.1667 788.5,21.5 Z"/></g>
<g><path style="opacity:0.115" fill="#dadada" d="M 787.5,21.5 C 791.97,20.5139 796.637,20.1805 801.5,20.5C 801.813,24.0419 801.479,27.3752 800.5,30.5C 800.5,30.1667 800.5,29.8333 800.5,29.5C 800.5,26.8333 800.5,24.1667 800.5,21.5C 796.5,21.5 792.5,21.5 788.5,21.5C 788.167,21.5 787.833,21.5 787.5,21.5 Z"/></g>
<g><path style="opacity:1" fill="#111111" d="M 936.5,21.5 C 940.5,21.5 944.5,21.5 948.5,21.5C 948.5,39.1667 948.5,56.8333 948.5,74.5C 944.003,75.0555 939.836,74.3888 936,72.5C 930.333,76.5 924.667,76.5 919,72.5C 917.021,60.1533 917.021,47.82 919,35.5C 924.927,31.3517 930.594,31.685 936,36.5C 936.499,31.5111 936.666,26.5111 936.5,21.5 Z M 932.5,43.5 C 933.5,43.5 934.5,43.5 935.5,43.5C 936.53,49.4632 936.697,55.4632 936,61.5C 935.424,64.1242 934.09,64.7908 932,63.5C 931.208,56.7526 931.374,50.0859 932.5,43.5 Z"/></g>
<g><path style="opacity:0.741" fill="#585858" d="M 936.5,21.5 C 940.634,20.5151 944.968,20.1818 949.5,20.5C 949.83,38.6744 949.497,56.6744 948.5,74.5C 948.5,56.8333 948.5,39.1667 948.5,21.5C 944.5,21.5 940.5,21.5 936.5,21.5 Z"/></g>
<g><path style="opacity:1" fill="#202020" d="M 78.5,25.5 C 81.1194,25.2317 83.6194,25.565 86,26.5C 87.2478,30.6863 86.0811,34.0196 82.5,36.5C 86.8663,39.3088 88.533,43.3088 87.5,48.5C 86.5,48.5 85.5,48.5 84.5,48.5C 83.6236,48.6309 82.9569,48.2975 82.5,47.5C 83.325,46.6143 84.325,46.281 85.5,46.5C 85.1142,43.2634 83.6142,40.5967 81,38.5C 80.5065,36.8659 80.3398,35.1992 80.5,33.5C 80.3284,32.5084 80.6618,31.8417 81.5,31.5C 82.4345,30.4324 82.7678,29.099 82.5,27.5C 72.1452,27.8319 61.8119,27.4986 51.5,26.5C 60.4754,25.5018 69.4754,25.1685 78.5,25.5 Z"/></g>
<g><path style="opacity:1" fill="#42444e" d="M 24.5,35.5 C 22.8008,35.3398 21.1341,35.5065 19.5,36C 20.7112,36.8928 20.7112,37.7261 19.5,38.5C 17.9899,36.678 16.6566,34.678 15.5,32.5C 14.5258,34.7427 14.1924,37.076 14.5,39.5C 13.0448,35.9472 13.3781,32.4472 15.5,29C 21.3541,27.2579 24.3541,29.4246 24.5,35.5 Z"/></g>
<g><path style="opacity:0.479" fill="#8d8d8d" d="M 429.5,21.5 C 425.5,21.5 421.5,21.5 417.5,21.5C 417.5,24.1667 417.5,26.8333 417.5,29.5C 421.5,29.5 425.5,29.5 429.5,29.5C 425.366,30.4849 421.032,30.8182 416.5,30.5C 416.5,27.1667 416.5,23.8333 416.5,20.5C 421.032,20.1818 425.366,20.5151 429.5,21.5 Z"/></g>
<g><path style="opacity:0.478" fill="#808080" d="M 787.5,21.5 C 787.833,21.5 788.167,21.5 788.5,21.5C 788.5,24.1667 788.5,26.8333 788.5,29.5C 792.5,29.5 796.5,29.5 800.5,29.5C 800.5,29.8333 800.5,30.1667 800.5,30.5C 796.167,30.5 791.833,30.5 787.5,30.5C 787.5,27.5 787.5,24.5 787.5,21.5 Z"/></g>
<g><path style="opacity:1" fill="#31522d" d="M 81.5,31.5 C 80.6618,31.8417 80.3284,32.5084 80.5,33.5C 79.1779,33.33 78.0113,33.6634 77,34.5C 76.3483,32.2769 74.8483,31.1102 72.5,31C 74.7106,29.161 76.8773,29.3276 79,31.5C 80.3919,29.1582 81.2252,29.1582 81.5,31.5 Z"/></g>
<g><path style="opacity:0.346" fill="#909090" d="M 245.5,21.5 C 251.979,20.5093 258.646,20.176 265.5,20.5C 265.5,24.8333 265.5,29.1667 265.5,33.5C 261.167,33.5 256.833,33.5 252.5,33.5C 252.5,36.1667 252.5,38.8333 252.5,41.5C 256.833,41.5 261.167,41.5 265.5,41.5C 265.5,45.8333 265.5,50.1667 265.5,54.5C 261.167,54.5 256.833,54.5 252.5,54.5C 252.5,57.1667 252.5,59.8333 252.5,62.5C 256.833,62.5 261.167,62.5 265.5,62.5C 265.817,66.7016 265.483,70.7016 264.5,74.5C 264.5,70.8333 264.5,67.1667 264.5,63.5C 260.167,63.5 255.833,63.5 251.5,63.5C 251.5,60.1667 251.5,56.8333 251.5,53.5C 255.833,53.5 260.167,53.5 264.5,53.5C 264.5,49.8333 264.5,46.1667 264.5,42.5C 260.167,42.5 255.833,42.5 251.5,42.5C 251.5,39.1667 251.5,35.8333 251.5,32.5C 255.833,32.5 260.167,32.5 264.5,32.5C 264.5,28.8333 264.5,25.1667 264.5,21.5C 258.167,21.5 251.833,21.5 245.5,21.5 Z"/></g>
<g><path style="opacity:0.835" fill="#637e41" d="M 31.5,32.5 C 32.1667,32.8333 32.8333,33.1667 33.5,33.5C 35.129,35.1959 34.7957,36.1959 32.5,36.5C 31.596,35.791 31.2627,34.791 31.5,33.5C 31.5,33.1667 31.5,32.8333 31.5,32.5 Z"/></g>
<g><path style="opacity:0.324" fill="#9a9a9a" d="M 217.5,33.5 C 216.5,33.5 215.5,33.5 214.5,33.5C 214.5,36.1667 214.5,38.8333 214.5,41.5C 215.833,41.5 217.167,41.5 218.5,41.5C 217.081,42.4511 215.415,42.7845 213.5,42.5C 213.5,39.1667 213.5,35.8333 213.5,32.5C 215.099,32.2322 216.432,32.5655 217.5,33.5 Z"/></g>
<g><path style="opacity:1" fill="#161616" d="M 343.5,35.5 C 343.783,36.2891 344.283,36.9558 345,37.5C 345.49,36.2068 345.657,34.8734 345.5,33.5C 349.833,33.5 354.167,33.5 358.5,33.5C 358.5,47.1667 358.5,60.8333 358.5,74.5C 354.167,74.5 349.833,74.5 345.5,74.5C 345.646,69.8634 344.979,69.5301 343.5,73.5C 338.454,76.0704 333.287,76.0704 328,73.5C 326.893,66.9099 326.393,60.2432 326.5,53.5C 326.667,47.8333 326.833,42.1667 327,36.5C 332.35,31.7171 337.85,31.3838 343.5,35.5 Z M 341.5,43.5 C 342.496,43.4142 343.329,43.7476 344,44.5C 344.667,50.8333 344.667,57.1667 344,63.5C 343,64.8333 342,64.8333 341,63.5C 338.846,56.7209 339.012,50.0543 341.5,43.5 Z"/></g>
<g><path style="opacity:0.827" fill="#7f7f7f" d="M 376.5,35.5 C 376.631,36.3764 376.298,37.0431 375.5,37.5C 374.614,36.675 374.281,35.675 374.5,34.5C 370.5,34.5 366.5,34.5 362.5,34.5C 362.5,47.8333 362.5,61.1667 362.5,74.5C 361.504,61.0102 361.171,47.3435 361.5,33.5C 366.807,32.9735 371.807,33.6402 376.5,35.5 Z"/></g>
<g><path style="opacity:1" fill="#101010" d="M 391.5,34.5 C 391.427,36.0269 392.094,37.0269 393.5,37.5C 395.57,34.0248 398.737,32.6915 403,33.5C 406.604,32.9874 409.604,33.9874 412,36.5C 412.5,49.1623 412.667,61.8289 412.5,74.5C 408.167,74.5 403.833,74.5 399.5,74.5C 399.5,65.1667 399.5,55.8333 399.5,46.5C 399.715,44.8212 399.048,43.8212 397.5,43.5C 396.504,43.4142 395.671,43.7476 395,44.5C 394.5,54.4944 394.334,64.4944 394.5,74.5C 389.833,74.5 385.167,74.5 380.5,74.5C 380.666,64.4944 380.5,54.4944 380,44.5C 378.286,43.0745 376.953,43.4078 376,45.5C 375.5,55.1609 375.334,64.8276 375.5,74.5C 371.167,74.5 366.833,74.5 362.5,74.5C 362.5,61.1667 362.5,47.8333 362.5,34.5C 366.5,34.5 370.5,34.5 374.5,34.5C 374.281,35.675 374.614,36.675 375.5,37.5C 376.298,37.0431 376.631,36.3764 376.5,35.5C 376.918,34.7784 377.584,34.2784 378.5,34C 383.02,33.1864 387.354,33.353 391.5,34.5 Z"/></g>
<g><path style="opacity:1" fill="#131313" d="M 446.5,33.5 C 446.343,34.8734 446.51,36.2068 447,37.5C 447.717,36.9558 448.217,36.2891 448.5,35.5C 450.807,33.9532 453.473,33.2865 456.5,33.5C 458.5,33.6667 460.5,33.8333 462.5,34C 463.667,34.5 464.5,35.3333 465,36.5C 465.5,49.1623 465.667,61.8289 465.5,74.5C 461.167,74.5 456.833,74.5 452.5,74.5C 452.666,64.8276 452.5,55.1609 452,45.5C 451.047,43.4078 449.714,43.0745 448,44.5C 447.5,54.4944 447.334,64.4944 447.5,74.5C 442.833,74.5 438.167,74.5 433.5,74.5C 433.5,60.8333 433.5,47.1667 433.5,33.5C 437.833,33.5 442.167,33.5 446.5,33.5 Z"/></g>
<g><path style="opacity:1" fill="#101010" d="M 656.5,45.5 C 655.609,46.1098 654.609,46.4431 653.5,46.5C 651.173,46.3354 649.007,45.6687 647,44.5C 646.5,54.4944 646.334,64.4944 646.5,74.5C 642.167,74.5 637.833,74.5 633.5,74.5C 633.5,60.8333 633.5,47.1667 633.5,33.5C 637.833,33.5 642.167,33.5 646.5,33.5C 646.343,34.8734 646.51,36.2068 647,37.5C 649.456,33.7956 652.789,32.4623 657,33.5C 657.357,37.5104 657.19,41.5104 656.5,45.5 Z"/></g>
<g><path style="opacity:0.832" fill="#363636" d="M 767.5,33.5 C 766.167,33.5 764.833,33.5 763.5,33.5C 763.5,43.1667 763.5,52.8333 763.5,62.5C 762.506,52.6806 762.173,42.6806 762.5,32.5C 764.415,32.2155 766.081,32.5489 767.5,33.5 Z"/></g>
<g><path style="opacity:1" fill="#1b1b1b" d="M 905.5,33.5 C 905.34,35.1992 905.506,36.8659 906,38.5C 906.717,37.9558 907.217,37.2891 907.5,36.5C 909.144,34.1484 911.477,32.8151 914.5,32.5C 915.086,32.7093 915.586,33.0426 916,33.5C 916.888,38.6178 916.555,43.6178 915,48.5C 912.457,46.8952 909.791,45.5619 907,44.5C 906.5,54.4944 906.334,64.4944 906.5,74.5C 901.833,74.5 897.167,74.5 892.5,74.5C 892.5,60.8333 892.5,47.1667 892.5,33.5C 896.833,33.5 901.167,33.5 905.5,33.5 Z"/></g>
<g><path style="opacity:0.302" fill="#b4b4b4" d="M 345.5,33.5 C 345.657,34.8734 345.49,36.2068 345,37.5C 344.283,36.9558 343.783,36.2891 343.5,35.5C 344.167,34.8333 344.833,34.1667 345.5,33.5 Z"/></g>
<g><path style="opacity:1" fill="#0a0a0a" d="M 416.5,33.5 C 420.833,33.5 425.167,33.5 429.5,33.5C 429.5,47.1667 429.5,60.8333 429.5,74.5C 425.167,74.5 420.833,74.5 416.5,74.5C 416.5,60.8333 416.5,47.1667 416.5,33.5 Z"/></g>
<g><path style="opacity:0.357" fill="#a8a8a8" d="M 446.5,33.5 C 447.167,34.1667 447.833,34.8333 448.5,35.5C 448.217,36.2891 447.717,36.9558 447,37.5C 446.51,36.2068 446.343,34.8734 446.5,33.5 Z"/></g>
<g><path style="opacity:1" fill="#121212" d="M 470.5,85.5 C 470.5,83.1667 470.5,80.8333 470.5,78.5C 474.502,78.0357 478.169,78.7024 481.5,80.5C 486.495,81.4177 488.828,79.4177 488.5,74.5C 483.156,74.666 477.823,74.4994 472.5,74C 471.667,73.1667 470.833,72.3333 470,71.5C 469.333,60.1667 469.333,48.8333 470,37.5C 470.374,36.5838 470.874,35.7504 471.5,35C 480.398,33.3909 489.398,33.0576 498.5,34C 499.333,34.8333 500.167,35.6667 501,36.5C 501.667,52.8333 501.667,69.1667 501,85.5C 500.5,86 500,86.5 499.5,87C 490.911,88.5762 482.244,88.9095 473.5,88C 472.058,87.6232 471.058,86.7899 470.5,85.5 Z M 488.5,61.5 C 487.599,62.2905 486.932,63.2905 486.5,64.5C 485.504,64.5858 484.671,64.2524 484,63.5C 483.333,57.1667 483.333,50.8333 484,44.5C 486.09,43.2092 487.424,43.8758 488,46.5C 488.499,51.4889 488.666,56.4889 488.5,61.5 Z"/></g>
<g><path style="opacity:1" fill="#0d0d0d" d="M 593.5,36.5 C 593.5,43.8333 593.5,51.1667 593.5,58.5C 587.5,58.5 581.5,58.5 575.5,58.5C 575.216,60.4147 575.549,62.0813 576.5,63.5C 577.167,63.8333 577.833,64.1667 578.5,64.5C 583.305,65.4872 588.305,65.8205 593.5,65.5C 593.5,68.5 593.5,71.5 593.5,74.5C 584.161,74.6665 574.827,74.4998 565.5,74C 564.299,73.0975 563.465,71.9308 563,70.5C 562.333,59.8333 562.333,49.1667 563,38.5C 563.583,36.9984 564.416,35.6651 565.5,34.5C 573.785,33.3638 582.118,33.1971 590.5,34C 591.942,34.3768 592.942,35.2101 593.5,36.5 Z M 578.5,43.5 C 580.834,45.1757 581.834,47.509 581.5,50.5C 579.833,50.5 578.167,50.5 576.5,50.5C 576.5,48.8333 576.5,47.1667 576.5,45.5C 577.5,45.1667 578.167,44.5 578.5,43.5 Z"/></g>
<g><path style="opacity:1" fill="#121212" d="M 601.5,33.5 C 609.507,33.3336 617.507,33.5003 625.5,34C 626.931,34.4652 628.097,35.2986 629,36.5C 629.667,48.1667 629.667,59.8333 629,71.5C 628.167,72.3333 627.333,73.1667 626.5,74C 618.167,74.6667 609.833,74.6667 601.5,74C 600.584,73.6258 599.75,73.1258 599,72.5C 597.377,60.9303 597.043,49.2636 598,37.5C 598.69,35.6498 599.856,34.3164 601.5,33.5 Z M 613.5,43.5 C 614.458,43.9528 615.292,44.6195 616,45.5C 616.667,51.1667 616.667,56.8333 616,62.5C 615.047,64.5922 613.714,64.9255 612,63.5C 610.937,56.556 611.437,49.8894 613.5,43.5 Z"/></g>
<g><path style="opacity:1" fill="#131313" d="M 659.5,85.5 C 659.5,83.1667 659.5,80.8333 659.5,78.5C 663.502,78.0357 667.169,78.7024 670.5,80.5C 675.495,81.4177 677.828,79.4177 677.5,74.5C 672.156,74.666 666.823,74.4994 661.5,74C 660.667,73.1667 659.833,72.3333 659,71.5C 658.333,60.1667 658.333,48.8333 659,37.5C 659.374,36.5838 659.874,35.7504 660.5,35C 669.398,33.3909 678.398,33.0576 687.5,34C 688.333,34.8333 689.167,35.6667 690,36.5C 690.667,52.8333 690.667,69.1667 690,85.5C 689.5,86 689,86.5 688.5,87C 679.911,88.5762 671.244,88.9095 662.5,88C 661.058,87.6232 660.058,86.7899 659.5,85.5 Z M 674.5,43.5 C 675.79,44.0577 676.623,45.0577 677,46.5C 677.697,52.5368 677.53,58.5368 676.5,64.5C 675.178,64.67 674.011,64.3366 673,63.5C 671.937,56.556 672.437,49.8894 674.5,43.5 Z"/></g>
<g><path style="opacity:1" fill="#0d0d0d" d="M 725.5,38.5 C 725.5,45.1667 725.5,51.8333 725.5,58.5C 719.31,58.1771 713.31,58.5104 707.5,59.5C 707.297,61.3904 707.963,62.8904 709.5,64C 715.157,64.4994 720.824,64.6661 726.5,64.5C 726.5,67.8333 726.5,71.1667 726.5,74.5C 716.447,74.8085 706.447,74.4752 696.5,73.5C 695.808,72.9747 695.308,72.3081 695,71.5C 694.333,60.1667 694.333,48.8333 695,37.5C 695.374,36.5838 695.874,35.7504 696.5,35C 705.064,33.3933 713.73,33.06 722.5,34C 724.863,34.5885 725.863,36.0885 725.5,38.5 Z M 712.5,45.5 C 712.5,47.1667 712.5,48.8333 712.5,50.5C 710.833,50.5 709.167,50.5 707.5,50.5C 707.264,47.7743 708.097,45.441 710,43.5C 710.708,44.3805 711.542,45.0472 712.5,45.5 Z"/></g>
<g><path style="opacity:1" fill="#1a1a1a" d="M 787.5,33.5 C 792.167,33.5 796.833,33.5 801.5,33.5C 801.5,47.1667 801.5,60.8333 801.5,74.5C 796.833,74.5 792.167,74.5 787.5,74.5C 787.5,60.8333 787.5,47.1667 787.5,33.5 Z"/></g>
<g><path style="opacity:1" fill="#0f0f0f" d="M 805.5,74.5 C 805.5,71.5 805.5,68.5 805.5,65.5C 809.702,65.8168 813.702,65.4834 817.5,64.5C 817.5,62.8333 817.5,61.1667 817.5,59.5C 814.5,59.5 811.5,59.5 808.5,59.5C 806.876,59.6399 805.71,58.9733 805,57.5C 804.201,50.1166 804.368,42.7833 805.5,35.5C 806.025,34.8076 806.692,34.3076 807.5,34C 814.826,33.5003 822.159,33.3337 829.5,33.5C 829.5,36.8333 829.5,40.1667 829.5,43.5C 825.5,43.5 821.5,43.5 817.5,43.5C 817.5,44.8333 817.5,46.1667 817.5,47.5C 821.584,47.0431 825.417,47.7098 829,49.5C 830.591,56.392 830.924,63.392 830,70.5C 829.535,71.9308 828.701,73.0975 827.5,74C 820.174,74.4997 812.841,74.6663 805.5,74.5 Z"/></g>
<g><path style="opacity:1" fill="#161616" d="M 847.5,63.5 C 849.279,65.3435 851.612,66.0102 854.5,65.5C 854.5,68.5 854.5,71.5 854.5,74.5C 848.491,74.6662 842.491,74.4995 836.5,74C 835.299,73.0975 834.465,71.9308 834,70.5C 833.333,59.5 833.333,48.5 834,37.5C 834.465,36.0692 835.299,34.9025 836.5,34C 842.825,33.5005 849.158,33.3338 855.5,33.5C 855.5,36.8333 855.5,40.1667 855.5,43.5C 852.881,43.2317 850.381,43.565 848,44.5C 847.5,50.8246 847.334,57.1579 847.5,63.5 Z"/></g>
<g><path style="opacity:1" fill="#171717" d="M 861.5,33.5 C 869.507,33.3336 877.507,33.5003 885.5,34C 886.416,34.3742 887.25,34.8742 888,35.5C 889.103,41.7558 889.603,48.0891 889.5,54.5C 889.333,59.8333 889.167,65.1667 889,70.5C 888.626,71.4162 888.126,72.2496 887.5,73C 878.602,74.6091 869.602,74.9424 860.5,74C 859.667,73.1667 858.833,72.3333 858,71.5C 856,59.8333 856,48.1667 858,36.5C 859.145,35.3636 860.312,34.3636 861.5,33.5 Z M 872.5,43.5 C 873.15,43.8039 873.817,44.1373 874.5,44.5C 875.664,50.8072 875.831,57.1405 875,63.5C 873.286,64.9255 871.953,64.5922 871,62.5C 870.333,56.8333 870.333,51.1667 871,45.5C 871.717,44.9558 872.217,44.2891 872.5,43.5 Z"/></g>
<g><path style="opacity:0.356" fill="#a1a1a1" d="M 905.5,33.5 C 906.167,34.5 906.833,35.5 907.5,36.5C 907.217,37.2891 906.717,37.9558 906,38.5C 905.506,36.8659 905.34,35.1992 905.5,33.5 Z"/></g>
<g><path style="opacity:0.604" fill="#797979" d="M 391.5,34.5 C 392.906,34.9731 393.573,35.9731 393.5,37.5C 392.094,37.0269 391.427,36.0269 391.5,34.5 Z"/></g>
<g><path style="opacity:0.431" fill="#426c87" d="M 24.5,35.5 C 23.7659,36.7079 23.4326,38.0413 23.5,39.5C 20.388,40.0779 17.388,40.0779 14.5,39.5C 14.1924,37.076 14.5258,34.7427 15.5,32.5C 16.6566,34.678 17.9899,36.678 19.5,38.5C 20.7112,37.7261 20.7112,36.8928 19.5,36C 21.1341,35.5065 22.8008,35.3398 24.5,35.5 Z"/></g>
<g><path style="opacity:0.549" fill="#9f4c7e" d="M 32.5,39.5 C 32.5,40.1667 32.1667,40.5 31.5,40.5C 27.5807,41.2536 26.2473,39.9203 27.5,36.5C 28.3857,37.325 28.719,38.325 28.5,39.5C 29.8333,39.5 31.1667,39.5 32.5,39.5 Z"/></g>
<g><path style="opacity:0.374" fill="#a3a3a3" d="M 146.5,44.5 C 141.305,44.1795 136.305,44.5128 131.5,45.5C 130.957,45.44 130.624,45.1067 130.5,44.5C 135.986,43.1853 141.32,43.1853 146.5,44.5 Z"/></g>
<g><path style="opacity:0.008" fill="#d8d8d8" d="M 578.5,43.5 C 578.167,44.5 577.5,45.1667 576.5,45.5C 576.5,44.1667 577.167,43.5 578.5,43.5 Z"/></g>
<g><path style="opacity:0.143" fill="#c8c8c8" d="M 322.5,67.5 C 322.5,59.8333 322.5,52.1667 322.5,44.5C 317.5,44.5 312.5,44.5 307.5,44.5C 312.068,43.5 317.401,43.1666 323.5,43.5C 323.826,51.6841 323.492,59.6841 322.5,67.5 Z"/></g>
<g><path style="opacity:0.537" fill="#898989" d="M 558.5,70.5 C 558.5,61.8333 558.5,53.1667 558.5,44.5C 553.833,44.5 549.167,44.5 544.5,44.5C 544.5,45.5 544.5,46.5 544.5,47.5C 543.566,46.4324 543.232,45.099 543.5,43.5C 548.833,43.5 554.167,43.5 559.5,43.5C 559.827,52.6822 559.493,61.6822 558.5,70.5 Z"/></g>
<g><path style="opacity:0.051" fill="#bababa" d="M 397.5,43.5 C 399.048,43.8212 399.715,44.8212 399.5,46.5C 398.599,45.7095 397.932,44.7095 397.5,43.5 Z"/></g>
<g><path style="opacity:0.537" fill="#868686" d="M 656.5,45.5 C 656.649,49.0007 655.649,49.3341 653.5,46.5C 654.609,46.4431 655.609,46.1098 656.5,45.5 Z"/></g>
<g><path style="opacity:0.999" fill="#3c3c3c" d="M 49.5,2.5 C 49.8333,2.5 50.1667,2.5 50.5,2.5C 51.7688,9.1426 52.9355,15.8093 54,22.5C 54.1461,17.1574 54.1461,11.8241 54,6.5C 60.0164,8.11576 65.5164,10.7824 70.5,14.5C 74.3851,17.3698 77.0518,21.0365 78.5,25.5C 69.4754,25.1685 60.4754,25.5018 51.5,26.5C 61.8119,27.4986 72.1452,27.8319 82.5,27.5C 82.7678,29.099 82.4345,30.4324 81.5,31.5C 81.2252,29.1582 80.3919,29.1582 79,31.5C 76.8773,29.3276 74.7106,29.161 72.5,31C 74.8483,31.1102 76.3483,32.2769 77,34.5C 78.0113,33.6634 79.1779,33.33 80.5,33.5C 80.3398,35.1992 80.5065,36.8659 81,38.5C 83.6142,40.5967 85.1142,43.2634 85.5,46.5C 84.325,46.281 83.325,46.6143 82.5,47.5C 82.9569,48.2975 83.6236,48.6309 84.5,48.5C 84.6633,50.8568 84.4966,53.1902 84,55.5C 82.6057,64.1376 77.439,67.8042 68.5,66.5C 68.5,67.5 68.5,68.5 68.5,69.5C 64.1534,69.942 63.82,70.7753 67.5,72C 66.7476,72.6708 66.4142,73.5041 66.5,74.5C 64.6208,75.3414 62.6208,75.6747 60.5,75.5C 60.5,77.8333 60.5,80.1667 60.5,82.5C 59.5,82.5 58.5,82.5 57.5,82.5C 58.7143,79.796 58.7143,77.1293 57.5,74.5C 59.1296,72.642 59.4629,70.642 58.5,68.5C 58.5,65.1667 58.5,61.8333 58.5,58.5C 58.5,58.1667 58.5,57.8333 58.5,57.5C 59.6857,56.2946 59.6857,54.9613 58.5,53.5C 49.3483,52.5064 40.015,52.1731 30.5,52.5C 30.5,53.8333 30.5,55.1667 30.5,56.5C 29.0108,54.8839 28.0108,52.8839 27.5,50.5C 26.5713,51.6888 26.238,53.0222 26.5,54.5C 25.0695,54.5792 23.7362,54.2458 22.5,53.5C 21.1524,50.6018 20.6524,47.6018 21,44.5C 22,43.8333 23,43.1667 24,42.5C 27.4428,43.3674 30.7761,43.7008 34,43.5C 34.1667,43.1667 34.3333,42.8333 34.5,42.5C 33.3984,41.8243 32.3984,41.1577 31.5,40.5C 32.1667,40.5 32.5,40.1667 32.5,39.5C 32.5,38.5 32.5,37.5 32.5,36.5C 34.7957,36.1959 35.129,35.1959 33.5,33.5C 34.404,32.791 34.7373,31.791 34.5,30.5C 32.712,30.2148 31.0453,30.5481 29.5,31.5C 29.9569,32.2975 30.6236,32.6309 31.5,32.5C 31.5,32.8333 31.5,33.1667 31.5,33.5C 30.3121,34.6843 29.1455,34.6843 28,33.5C 27.5065,31.8659 27.3398,30.1992 27.5,28.5C 28.5,28.5 29.5,28.5 30.5,28.5C 30.435,21.5742 29.1016,14.9076 26.5,8.5C 26.6399,6.97041 27.3065,5.97041 28.5,5.5C 29.8216,10.4708 31.1549,15.4708 32.5,20.5C 32.0029,22.8183 31.6695,25.1516 31.5,27.5C 37.5,27.5 43.5,27.5 49.5,27.5C 49.5792,26.0695 49.2458,24.7362 48.5,23.5C 46.5767,22.6922 44.5767,22.1922 42.5,22C 45.4318,20.8551 48.4318,20.0218 51.5,19.5C 51.1425,14.3789 50.1425,9.37895 48.5,4.5C 48.5427,3.58362 48.8761,2.91695 49.5,2.5 Z M 37.5,23.5 C 36.7375,24.2679 35.7375,24.7679 34.5,25C 35.1667,25.1667 35.8333,25.3333 36.5,25.5C 40.2194,25.5622 43.8861,25.0622 47.5,24C 44.1832,23.5017 40.8499,23.335 37.5,23.5 Z M 42.5,54.5 C 43.1667,54.5 43.8333,54.5 44.5,54.5C 44.5,55.1667 44.5,55.8333 44.5,56.5C 43.5,56.1667 42.8333,55.5 42.5,54.5 Z"/></g>
<g><path style="opacity:0.406" fill="#767676" d="M 45.5,31.5 C 46.6341,33.9664 46.8007,36.633 46,39.5C 43.415,42.1283 40.915,42.1283 38.5,39.5C 40.0026,38.9478 41.6693,38.9478 43.5,39.5C 43.298,37.0504 43.6314,34.717 44.5,32.5C 45.1667,32.5 45.5,32.1667 45.5,31.5 Z"/></g>
<g><path style="opacity:0.682" fill="#667761" d="M 71.5,34.5 C 73.0145,35.6801 74.6812,36.6801 76.5,37.5C 74.8955,39.1789 74.2289,41.1789 74.5,43.5C 75.8734,43.3433 77.2068,43.51 78.5,44C 76.5273,44.4955 74.5273,44.6621 72.5,44.5C 72.5793,41.7294 72.0793,39.0627 71,36.5C 70.1739,38.4054 69.0072,38.7388 67.5,37.5C 68.9014,36.4793 70.2347,35.4793 71.5,34.5 Z"/></g>
<g><path style="opacity:0.165" fill="#5570b1" d="M 51.5,30.5 C 55.5138,30.3345 59.5138,30.5012 63.5,31C 64.8765,33.5402 64.2098,35.5402 61.5,37C 62.3366,38.0113 62.67,39.1779 62.5,40.5C 62.3893,41.1174 62.056,41.6174 61.5,42C 57.1287,42.8275 52.7953,42.6609 48.5,41.5C 48.6236,40.8933 48.9569,40.56 49.5,40.5C 50.7576,37.3061 51.4242,33.9728 51.5,30.5 Z"/></g>
<g><path style="opacity:0.171" fill="#bfadab" d="M 53.5,37.5 C 55.1667,37.5 56.8333,37.5 58.5,37.5C 58.5,38.5 58.5,39.5 58.5,40.5C 56.8333,40.5 55.1667,40.5 53.5,40.5C 53.5,39.5 53.5,38.5 53.5,37.5 Z"/></g>
<g><path style="opacity:0.443" fill="#b2938c" d="M 55.5,32.5 C 57.1667,32.5 58.8333,32.5 60.5,32.5C 60.5,33.5 60.5,34.5 60.5,35.5C 58.8333,35.5 57.1667,35.5 55.5,35.5C 55.5,34.5 55.5,33.5 55.5,32.5 Z"/></g>
<g><path style="opacity:1" fill="#c1842d" d="M 33.5,33.5 C 32.8333,33.1667 32.1667,32.8333 31.5,32.5C 30.6236,32.6309 29.9569,32.2975 29.5,31.5C 31.0453,30.5481 32.712,30.2148 34.5,30.5C 34.7373,31.791 34.404,32.791 33.5,33.5 Z"/></g>
<g><path style="opacity:0.889" fill="#eb1d1b" d="M 45.5,31.5 C 45.5,32.1667 45.1667,32.5 44.5,32.5C 43.325,32.719 42.325,32.3857 41.5,31.5C 42.9584,30.218 44.2918,30.218 45.5,31.5 Z"/></g>
<g><path style="opacity:1" fill="#744034" d="M 62.5,40.5 C 62.67,39.1779 62.3366,38.0113 61.5,37C 64.2098,35.5402 64.8765,33.5402 63.5,31C 59.5138,30.5012 55.5138,30.3345 51.5,30.5C 50.325,30.719 49.325,30.3857 48.5,29.5C 53.8556,28.214 59.189,28.214 64.5,29.5C 65.641,31.4213 65.8077,33.4213 65,35.5C 64.0147,37.1749 63.1814,38.8415 62.5,40.5 Z"/></g>
<g><path style="opacity:0.678" fill="#737576" d="M 39.5,10.5 C 40.5,10.5 41.5,10.5 42.5,10.5C 42.5,11.8333 42.5,13.1667 42.5,14.5C 41.1667,14.5 39.8333,14.5 38.5,14.5C 38.4326,13.0413 38.7659,11.7079 39.5,10.5 Z"/></g>
<g><path style="opacity:0.337" fill="#afafaf" d="M 228.5,47.5 C 228.5,48.1667 228.5,48.8333 228.5,49.5C 223.371,48.3856 223.371,47.719 228.5,47.5 Z"/></g>
<g><path style="opacity:0.35" fill="#929292" d="M 131.5,46.5 C 132.489,51.9753 132.822,57.642 132.5,63.5C 130.585,63.7845 128.919,63.4511 127.5,62.5C 128.833,62.5 130.167,62.5 131.5,62.5C 131.5,57.1667 131.5,51.8333 131.5,46.5 Z"/></g>
<g><path style="opacity:0.049" fill="#d0d0d0" d="M 576.5,45.5 C 576.5,47.1667 576.5,48.8333 576.5,50.5C 578.167,50.5 579.833,50.5 581.5,50.5C 579.735,51.4614 577.735,51.7947 575.5,51.5C 575.205,49.2646 575.539,47.2646 576.5,45.5 Z"/></g>
<g><path style="opacity:0.045" fill="#c9c9c9" d="M 712.5,45.5 C 713.461,47.2646 713.795,49.2646 713.5,51.5C 711.265,51.7947 709.265,51.4614 707.5,50.5C 709.167,50.5 710.833,50.5 712.5,50.5C 712.5,48.8333 712.5,47.1667 712.5,45.5 Z"/></g>
<g><path style="opacity:0.22" fill="#60527c" d="M 58.5,53.5 C 53.8592,54.1266 49.1925,54.4599 44.5,54.5C 43.8333,54.5 43.1667,54.5 42.5,54.5C 42.1667,54.5 41.8333,54.5 41.5,54.5C 40.2223,54.7822 39.2223,55.4489 38.5,56.5C 38.1667,55.5 37.5,54.8333 36.5,54.5C 35.8333,54.5 35.1667,54.5 34.5,54.5C 34.1667,54.5 33.8333,54.5 33.5,54.5C 32.8333,54.5 32.5,54.8333 32.5,55.5C 31.1667,56.1667 31.1667,56.8333 32.5,57.5C 32.3404,59.153 31.6737,60.4863 30.5,61.5C 30.5,59.8333 30.5,58.1667 30.5,56.5C 30.5,55.1667 30.5,53.8333 30.5,52.5C 40.015,52.1731 49.3483,52.5064 58.5,53.5 Z"/></g>
<g><path style="opacity:0.322" fill="#999999" d="M 218.5,54.5 C 217.167,54.5 215.833,54.5 214.5,54.5C 214.5,57.1667 214.5,59.8333 214.5,62.5C 215.5,62.5 216.5,62.5 217.5,62.5C 216.432,63.4345 215.099,63.7678 213.5,63.5C 213.5,60.1667 213.5,56.8333 213.5,53.5C 215.415,53.2155 217.081,53.5489 218.5,54.5 Z"/></g>
<g><path style="opacity:0.689" fill="#565656" d="M 593.5,36.5 C 594.492,43.9818 594.825,51.6484 594.5,59.5C 588.5,59.5 582.5,59.5 576.5,59.5C 576.5,60.8333 576.5,62.1667 576.5,63.5C 575.549,62.0813 575.216,60.4147 575.5,58.5C 581.5,58.5 587.5,58.5 593.5,58.5C 593.5,51.1667 593.5,43.8333 593.5,36.5 Z"/></g>
<g><path style="opacity:0.684" fill="#787878" d="M 725.5,38.5 C 726.491,45.3134 726.825,52.3134 726.5,59.5C 720.167,59.5 713.833,59.5 707.5,59.5C 713.31,58.5104 719.31,58.1771 725.5,58.5C 725.5,51.8333 725.5,45.1667 725.5,38.5 Z"/></g>
<g><path style="opacity:0.154" fill="#cccccc" d="M 808.5,59.5 C 811.5,59.5 814.5,59.5 817.5,59.5C 817.5,61.1667 817.5,62.8333 817.5,64.5C 817.167,64.5 816.833,64.5 816.5,64.5C 816.5,63.1667 816.5,61.8333 816.5,60.5C 813.615,60.8064 810.948,60.4731 808.5,59.5 Z"/></g>
<g><path style="opacity:0.035" fill="#80768d" d="M 33.5,54.5 C 33.8333,61.1667 34.1667,61.1667 34.5,54.5C 35.1667,54.5 35.8333,54.5 36.5,54.5C 35.6457,56.035 35.6457,57.3684 36.5,58.5C 36.8333,57.5 37.5,56.8333 38.5,56.5C 39.5511,57.2223 40.2178,58.2223 40.5,59.5C 39.6618,59.8417 39.3284,60.5084 39.5,61.5C 38.1667,62.1667 37.1667,63.1667 36.5,64.5C 35.8333,64.5 35.5,64.8333 35.5,65.5C 33.6283,64.2054 31.9617,64.3721 30.5,66C 31.3862,67.6147 32.3862,69.1147 33.5,70.5C 32.8333,70.5 32.5,70.8333 32.5,71.5C 31.8333,71.5 31.5,71.1667 31.5,70.5C 31.1667,69.5 30.5,68.8333 29.5,68.5C 29.448,66.0971 29.7814,63.7638 30.5,61.5C 31.6737,60.4863 32.3404,59.153 32.5,57.5C 32.5,56.8333 32.5,56.1667 32.5,55.5C 32.5,54.8333 32.8333,54.5 33.5,54.5 Z"/></g>
<g><path style="opacity:0.055" fill="#b7b6bb" d="M 58.5,53.5 C 59.6857,54.9613 59.6857,56.2946 58.5,57.5C 58.5,57.8333 58.5,58.1667 58.5,58.5C 57.5041,58.5858 56.6708,58.2524 56,57.5C 55.7216,58.4158 55.2216,59.0825 54.5,59.5C 54.1667,55.5 53.8333,55.5 53.5,59.5C 53.1667,59.5 52.8333,59.5 52.5,59.5C 52.1667,58.1667 51.8333,58.1667 51.5,59.5C 50.9244,62.1268 52.2577,63.6268 55.5,64C 57.3348,64.9277 57.6682,66.0944 56.5,67.5C 56.9569,68.2975 57.6236,68.6309 58.5,68.5C 59.4629,70.642 59.1296,72.642 57.5,74.5C 57.573,72.9731 56.9063,71.9731 55.5,71.5C 55.1667,70.1667 54.8333,70.1667 54.5,71.5C 53.8354,69.6309 53.1687,67.6309 52.5,65.5C 51.2638,66.2458 49.9305,66.5792 48.5,66.5C 48.5674,67.9587 48.2341,69.2921 47.5,70.5C 47.1667,70.5 46.8333,70.5 46.5,70.5C 47.562,68.7659 47.562,67.0992 46.5,65.5C 47.8333,65.1667 47.8333,64.8333 46.5,64.5C 48.1511,62.5979 48.4845,60.5979 47.5,58.5C 48.7733,57.9232 48.7733,57.2565 47.5,56.5C 46.5712,55.4502 45.9046,55.4502 45.5,56.5C 45.1667,56.5 44.8333,56.5 44.5,56.5C 44.5,55.8333 44.5,55.1667 44.5,54.5C 49.1925,54.4599 53.8592,54.1266 58.5,53.5 Z"/></g>
<g><path style="opacity:0.663" fill="#957a70" d="M 41.5,54.5 C 41.8333,54.5 42.1667,54.5 42.5,54.5C 42.8333,55.5 43.5,56.1667 44.5,56.5C 44.8333,56.5 45.1667,56.5 45.5,56.5C 46.1667,57.1667 46.8333,57.8333 47.5,58.5C 48.4845,60.5979 48.1511,62.5979 46.5,64.5C 46.5,64.8333 46.5,65.1667 46.5,65.5C 47.562,67.0992 47.562,68.7659 46.5,70.5C 45.391,70.4431 44.391,70.1098 43.5,69.5C 43.4226,68.2502 42.756,67.4169 41.5,67C 42.938,66.7811 44.2713,66.2811 45.5,65.5C 43.086,64.0892 41.4194,62.0892 40.5,59.5C 41.0478,57.85 41.3811,56.1834 41.5,54.5 Z"/></g>
<g><path style="opacity:0.216" fill="#a1a1a1" d="M 179.5,59.5 C 178.082,61.3079 176.082,61.9746 173.5,61.5C 173.795,63.7354 173.461,65.7354 172.5,67.5C 172.5,65.1667 172.5,62.8333 172.5,60.5C 174.95,60.702 177.283,60.3686 179.5,59.5 Z"/></g>
<g><path style="opacity:0.246" fill="#9ad56e" d="M 26.5,58.5 C 24.3284,60.9448 21.6617,62.9448 18.5,64.5C 16.604,65.4656 14.604,65.7989 12.5,65.5C 12.2914,64.0783 11.7914,62.745 11,61.5C 9.85453,62.6843 8.68787,62.6843 7.5,61.5C 7.5,60.5 7.5,59.5 7.5,58.5C 11.0693,57.8111 14.5693,56.8111 18,55.5C 20.7435,56.8031 23.5768,57.8031 26.5,58.5 Z"/></g>
<g><path style="opacity:0.596" fill="#a0a0a0" d="M 154.5,60.5 C 152.361,61.1581 150.361,62.1581 148.5,63.5C 148.5,62.5 148.5,61.5 148.5,60.5C 150.5,60.5 152.5,60.5 154.5,60.5 Z"/></g>
<g><path style="opacity:0.978" fill="#6c864f" d="M 26.5,58.5 C 28.0481,58.8212 28.7148,59.8212 28.5,61.5C 23.7099,65.6723 18.3765,67.0056 12.5,65.5C 14.604,65.7989 16.604,65.4656 18.5,64.5C 21.6617,62.9448 24.3284,60.9448 26.5,58.5 Z"/></g>
<g><path style="opacity:0.271" fill="#8598b8" d="M 58.5,58.5 C 58.5,61.8333 58.5,65.1667 58.5,68.5C 57.6236,68.6309 56.9569,68.2975 56.5,67.5C 57.6682,66.0944 57.3348,64.9277 55.5,64C 52.2577,63.6268 50.9244,62.1268 51.5,59.5C 51.8333,59.5 52.1667,59.5 52.5,59.5C 52.8333,59.5 53.1667,59.5 53.5,59.5C 53.8333,59.5 54.1667,59.5 54.5,59.5C 55.2216,59.0825 55.7216,58.4158 56,57.5C 56.6708,58.2524 57.5041,58.5858 58.5,58.5 Z"/></g>
<g><path style="opacity:0.733" fill="#979797" d="M 488.5,61.5 C 488.715,63.1788 488.048,64.1788 486.5,64.5C 486.932,63.2905 487.599,62.2905 488.5,61.5 Z"/></g>
<g><path style="opacity:0.149" fill="#bbb4ad" d="M 39.5,61.5 C 41.1383,63.9555 40.805,65.9555 38.5,67.5C 38.5,66.8333 38.1667,66.5 37.5,66.5C 36.5084,66.6716 35.8417,66.3382 35.5,65.5C 36.1667,65.5 36.5,65.1667 36.5,64.5C 37.1667,63.1667 38.1667,62.1667 39.5,61.5 Z"/></g>
<g><path style="opacity:0.662" fill="#535353" d="M 578.5,64.5 C 583.833,64.5 589.167,64.5 594.5,64.5C 594.813,68.0419 594.479,71.3752 593.5,74.5C 593.5,71.5 593.5,68.5 593.5,65.5C 588.305,65.8205 583.305,65.4872 578.5,64.5 Z"/></g>
<g><path style="opacity:0.667" fill="#868686" d="M 847.5,63.5 C 850.054,64.388 852.721,64.7214 855.5,64.5C 855.813,68.0419 855.479,71.3752 854.5,74.5C 854.5,71.5 854.5,68.5 854.5,65.5C 851.612,66.0102 849.279,65.3435 847.5,63.5 Z"/></g>
<g><path style="opacity:0.815" fill="#3d3d3d" d="M 816.5,64.5 C 816.833,64.5 817.167,64.5 817.5,64.5C 813.702,65.4834 809.702,65.8168 805.5,65.5C 805.5,68.5 805.5,71.5 805.5,74.5C 804.521,71.3752 804.187,68.0419 804.5,64.5C 808.5,64.5 812.5,64.5 816.5,64.5 Z"/></g>
<g><path style="opacity:0.38" fill="#aaaaaa" d="M 148.5,67.5 C 148.298,69.9496 148.631,72.283 149.5,74.5C 148.275,73.8478 147.608,72.6811 147.5,71C 147.514,69.6153 147.848,68.4486 148.5,67.5 Z"/></g>
<g><path style="opacity:0.308" fill="#a9a9a9" d="M 345.5,74.5 C 344.833,74.1667 344.167,73.8333 343.5,73.5C 344.979,69.5301 345.646,69.8634 345.5,74.5 Z"/></g>
<g><path style="opacity:0.108" fill="#90775f" d="M 7.5,61.5 C 8.68787,62.6843 9.85453,62.6843 11,61.5C 11.7914,62.745 12.2914,64.0783 12.5,65.5C 18.3765,67.0056 23.7099,65.6723 28.5,61.5C 28.7744,66.263 28.441,70.9296 27.5,75.5C 23.7518,75.9303 20.4184,77.2637 17.5,79.5C 13.76,78.0295 10.0933,76.3629 6.5,74.5C 6.23071,70.0685 6.56404,65.7352 7.5,61.5 Z M 14.5,71.5 C 14.8333,71.5 15.1667,71.5 15.5,71.5C 18.144,78.3655 17.4773,78.8655 13.5,73C 14.056,72.6174 14.3893,72.1174 14.5,71.5 Z M 8.5,70.5 C 8.68535,72.1958 9.51869,73.5291 11,74.5C 11.9098,72.0551 11.0764,70.7218 8.5,70.5 Z M 15.5,71.5 C 17.0281,71.4827 17.5281,70.816 17,69.5C 16.2828,70.0442 15.7828,70.7109 15.5,71.5 Z M 14.5,71.5 C 14.6495,70.448 14.4828,69.448 14,68.5C 12.1878,70.3036 12.3544,71.3036 14.5,71.5 Z"/></g>
<g><path style="opacity:0.251" fill="#5a504f" d="M 40.5,59.5 C 41.4194,62.0892 43.086,64.0892 45.5,65.5C 44.2713,66.2811 42.938,66.7811 41.5,67C 42.756,67.4169 43.4226,68.2502 43.5,69.5C 42.1456,72.3354 42.6456,75.0021 45,77.5C 48.4907,78.4337 51.9907,79.4337 55.5,80.5C 55.8627,81.1835 56.1961,81.8501 56.5,82.5C 52.8552,82.3443 49.1886,82.3443 45.5,82.5C 45.7535,80.5992 45.4202,79.9326 44.5,80.5C 44.1667,80.5 43.8333,80.5 43.5,80.5C 43.5,79.5 43.5,78.5 43.5,77.5C 40.8806,77.2317 38.3806,77.565 36,78.5C 35.4867,77.4734 34.9867,76.4734 34.5,75.5C 34.5,75.1667 34.5,74.8333 34.5,74.5C 34.7678,72.901 34.4345,71.5676 33.5,70.5C 32.3862,69.1147 31.3862,67.6147 30.5,66C 31.9617,64.3721 33.6283,64.2054 35.5,65.5C 35.8417,66.3382 36.5084,66.6716 37.5,66.5C 37.4607,68.2239 37.794,68.5573 38.5,67.5C 40.805,65.9555 41.1383,63.9555 39.5,61.5C 39.3284,60.5084 39.6618,59.8417 40.5,59.5 Z"/></g>
<g><path style="opacity:1" fill="#1e1e1e" d="M 6.5,74.5 C 10.0933,76.3629 13.76,78.0295 17.5,79.5C 20.4184,77.2637 23.7518,75.9303 27.5,75.5C 28.4731,77.9479 28.8064,80.6146 28.5,83.5C 33.8333,83.5 39.1667,83.5 44.5,83.5C 44.5,82.5 44.5,81.5 44.5,80.5C 45.4202,79.9326 45.7535,80.5992 45.5,82.5C 49.1886,82.3443 52.8552,82.3443 56.5,82.5C 56.8333,82.5 57.1667,82.5 57.5,82.5C 58.5,82.5 59.5,82.5 60.5,82.5C 60.5,80.1667 60.5,77.8333 60.5,75.5C 62.6208,75.6747 64.6208,75.3414 66.5,74.5C 73.5406,74.1626 80.5406,73.4959 87.5,72.5C 87.1866,69.7531 87.52,67.0865 88.5,64.5C 89.487,67.7683 89.8204,71.1016 89.5,74.5C 80.5118,75.5655 71.5118,76.5655 62.5,77.5C 62.5,80.1667 62.5,82.8333 62.5,85.5C 50.5,85.5 38.5,85.5 26.5,85.5C 26.5,83.8333 26.5,82.1667 26.5,80.5C 18.7907,83.6622 11.4574,82.9955 4.5,78.5C 3.16667,71.1667 3.16667,63.8333 4.5,56.5C 5.16677,62.6535 5.83343,68.6535 6.5,74.5 Z M 34.5,74.5 C 34.5,74.8333 34.5,75.1667 34.5,75.5C 33.325,75.719 32.325,75.3857 31.5,74.5C 32.2334,73.913 33.2334,73.913 34.5,74.5 Z M 55.5,71.5 C 56.9063,71.9731 57.573,72.9731 57.5,74.5C 57.3611,75.9191 56.8611,77.2524 56,78.5C 55.3918,76.9336 54.5585,75.6002 53.5,74.5C 54.1667,73.5 54.8333,72.5 55.5,71.5 Z M 14.5,71.5 C 14.8333,71.5 15.1667,71.5 15.5,71.5C 18.144,78.3655 17.4773,78.8655 13.5,73C 14.056,72.6174 14.3893,72.1174 14.5,71.5 Z M 31.5,70.5 C 31.5,71.1667 31.8333,71.5 32.5,71.5C 32.44,72.0431 32.1067,72.3764 31.5,72.5C 30.2267,71.7435 30.2267,71.0768 31.5,70.5 Z M 8.5,70.5 C 8.68535,72.1958 9.51869,73.5291 11,74.5C 11.9098,72.0551 11.0764,70.7218 8.5,70.5 Z M 15.5,71.5 C 17.0281,71.4827 17.5281,70.816 17,69.5C 16.2828,70.0442 15.7828,70.7109 15.5,71.5 Z M 14.5,71.5 C 14.6495,70.448 14.4828,69.448 14,68.5C 12.1878,70.3036 12.3544,71.3036 14.5,71.5 Z"/></g>
<g><path style="opacity:0.082" fill="#968579" d="M 29.5,68.5 C 30.5,68.8333 31.1667,69.5 31.5,70.5C 30.2267,71.0768 30.2267,71.7435 31.5,72.5C 32.1067,72.3764 32.44,72.0431 32.5,71.5C 33.1667,71.5 33.5,71.1667 33.5,70.5C 34.4345,71.5676 34.7678,72.901 34.5,74.5C 33.2334,73.913 32.2334,73.913 31.5,74.5C 32.325,75.3857 33.325,75.719 34.5,75.5C 34.9867,76.4734 35.4867,77.4734 36,78.5C 38.3806,77.565 40.8806,77.2317 43.5,77.5C 43.5,78.5 43.5,79.5 43.5,80.5C 40.7465,80.8874 38.2465,81.2208 36,81.5C 34.3333,78.8333 32.6667,78.8333 31,81.5C 29.5692,77.3654 29.0692,73.032 29.5,68.5 Z M 31.5,70.5 C 31.5,71.1667 31.8333,71.5 32.5,71.5C 32.44,72.0431 32.1067,72.3764 31.5,72.5C 30.2267,71.7435 30.2267,71.0768 31.5,70.5 Z"/></g>
<g><path style="opacity:0.959" fill="#5a514e" d="M 54.5,71.5 C 54.8333,71.5 55.1667,71.5 55.5,71.5C 54.8333,72.5 54.1667,73.5 53.5,74.5C 53.5912,76.6977 52.9245,77.0311 51.5,75.5C 51.1667,74.5 50.5,73.8333 49.5,73.5C 49.1667,73.5 48.8333,73.5 48.5,73.5C 47.8902,72.609 47.5569,71.609 47.5,70.5C 48.2341,69.2921 48.5674,67.9587 48.5,66.5C 49.9305,66.5792 51.2638,66.2458 52.5,65.5C 53.1687,67.6309 53.8354,69.6309 54.5,71.5 Z"/></g>
<g><path style="opacity:0.369" fill="#9c988f" d="M 43.5,69.5 C 44.391,70.1098 45.391,70.4431 46.5,70.5C 46.8333,70.5 47.1667,70.5 47.5,70.5C 47.5569,71.609 47.8902,72.609 48.5,73.5C 48.8333,74.8333 49.1667,74.8333 49.5,73.5C 50.5,73.8333 51.1667,74.5 51.5,75.5C 52.9245,77.0311 53.5912,76.6977 53.5,74.5C 54.5585,75.6002 55.3918,76.9336 56,78.5C 56.8611,77.2524 57.3611,75.9191 57.5,74.5C 58.7143,77.1293 58.7143,79.796 57.5,82.5C 57.1667,82.5 56.8333,82.5 56.5,82.5C 56.1961,81.8501 55.8627,81.1835 55.5,80.5C 51.9907,79.4337 48.4907,78.4337 45,77.5C 42.6456,75.0021 42.1456,72.3354 43.5,69.5 Z"/></g>
<g><path style="opacity:0.59" fill="#696969" d="M 481.5,80.5 C 478.169,78.7024 474.502,78.0357 470.5,78.5C 470.5,80.8333 470.5,83.1667 470.5,85.5C 469.527,83.0521 469.194,80.3854 469.5,77.5C 473.5,77.5 477.5,77.5 481.5,77.5C 481.5,78.5 481.5,79.5 481.5,80.5 Z"/></g>
<g><path style="opacity:0.586" fill="#696969" d="M 670.5,80.5 C 667.169,78.7024 663.502,78.0357 659.5,78.5C 659.5,80.8333 659.5,83.1667 659.5,85.5C 658.527,83.0521 658.194,80.3854 658.5,77.5C 662.5,77.5 666.5,77.5 670.5,77.5C 670.5,78.5 670.5,79.5 670.5,80.5 Z"/></g>
</svg>
